<?xml version="1.0" standalone="no"?>
<!DOCTYPE svg PUBLIC "-//W3C//DTD SVG 20010904//EN"
 "http://www.w3.org/TR/2001/REC-SVG-20010904/DTD/svg10.dtd">
<svg version="1.0" xmlns="http://www.w3.org/2000/svg"
 width="320.000000pt" height="320.000000pt" viewBox="0 0 320.000000 320.000000"
 preserveAspectRatio="xMidYMid meet">

<g transform="translate(0.000000,320.000000) scale(0.100000,-0.100000)"
fill="#000000" stroke="none">
<path d="M1192 3070 c-159 -24 -227 -44 -247 -72 -22 -32 -19 -90 7 -123 20
-26 24 -27 83 -21 l62 6 7 -32 c4 -18 20 -109 36 -203 38 -217 36 -206 60
-233 49 -52 130 -9 130 70 0 39 -53 369 -65 409 -6 17 29 29 80 29 13 0 37 12
54 26 28 23 31 24 32 7 1 -10 4 -112 8 -228 5 -188 8 -213 26 -237 31 -42 83
-58 198 -60 57 -1 71 3 91 21 45 42 38 119 -14 146 -23 12 -29 12 -42 -1 -8
-8 -31 -17 -51 -21 -63 -10 -85 29 -50 88 14 24 24 29 56 29 52 0 87 35 87 87
0 55 -10 64 -73 67 -63 3 -87 17 -87 52 0 33 16 39 109 39 l85 0 14 37 c12 30
12 40 0 64 -26 54 -56 66 -175 71 l-109 6 -35 -31 -35 -31 -25 25 c-34 33 -73
36 -217 14z"/>
<path d="M1994 3040 c-85 -26 -114 -90 -139 -310 -18 -161 -19 -269 -2 -291
24 -31 56 -42 87 -29 40 17 60 51 63 110 1 27 5 50 9 50 10 0 42 -49 77 -117
48 -95 99 -116 151 -61 l20 22 0 -36 c0 -78 75 -125 208 -130 78 -3 82 -2 111
26 25 24 31 38 31 71 0 52 -34 87 -103 106 -64 18 -56 35 14 31 51 -3 60 -1
89 25 26 23 33 37 34 70 1 53 -31 90 -91 106 -31 8 -42 15 -38 27 2 8 7 28 11
43 6 26 10 28 38 22 17 -3 52 -9 78 -12 43 -5 50 -3 77 25 23 23 31 40 31 67
0 81 -41 105 -184 112 -89 4 -105 2 -133 -16 -50 -31 -61 -58 -98 -220 -37
-163 -73 -288 -75 -256 0 11 -18 52 -39 92 l-38 72 24 23 c31 29 59 83 68 129
13 71 -33 166 -109 224 -39 30 -119 41 -172 25z m109 -142 c58 -30 63 -84 13
-134 -37 -37 -78 -44 -112 -20 -15 11 -19 27 -19 71 0 48 4 60 24 76 26 22 62
24 94 7z"/>
<path d="M599 2805 c-32 -17 -53 -65 -44 -97 11 -32 233 -439 253 -462 39 -43
58 -42 200 17 102 42 122 60 122 104 0 47 -14 69 -51 82 -26 9 -43 7 -102 -14
-39 -13 -72 -23 -73 -22 -1 1 -46 84 -99 184 -116 219 -140 244 -206 208z"/>
<path d="M2855 2806 c-16 -7 -37 -22 -46 -32 -24 -29 -64 -152 -110 -338 -43
-176 -45 -216 -14 -276 70 -136 374 -85 488 83 27 39 27 42 27 196 0 179 -3
188 -99 286 -84 86 -170 114 -246 81z m132 -218 c51 -55 66 -93 61 -164 -3
-50 -9 -69 -28 -90 -32 -34 -70 -53 -126 -63 l-46 -9 5 34 c9 53 90 324 97
324 3 0 20 -15 37 -32z"/>
<path d="M357 2629 c-25 -14 -49 -73 -40 -96 4 -10 22 -37 39 -61 32 -41 104
-160 177 -294 59 -107 108 -132 163 -84 47 40 39 70 -72 270 -138 248 -196
306 -267 265z"/>
<path d="M197 2489 c-19 -11 -122 -160 -155 -224 -60 -118 -35 -182 170 -441
48 -61 97 -114 109 -117 49 -13 99 32 99 89 0 24 -16 53 -64 115 l-64 84 44
47 c36 39 44 54 44 86 0 27 -7 45 -23 60 -34 32 -76 28 -128 -13 -24 -19 -46
-30 -47 -25 -4 12 31 74 95 169 46 69 51 96 28 140 -21 41 -67 54 -108 30z"/>
<path d="M2195 2270 c4 -14 13 -35 21 -47 8 -12 14 -24 14 -26 0 -2 -37 9 -81
24 -145 48 -366 48 -579 -2 -47 -11 -123 -27 -170 -35 -249 -43 -471 -169
-657 -374 -23 -25 -50 -46 -61 -47 -11 -1 -66 -33 -123 -71 -57 -39 -156 -94
-219 -123 -161 -73 -184 -91 -199 -160 -4 -15 -33 -48 -71 -80 -62 -53 -65
-57 -68 -105 l-3 -49 72 70 c45 44 73 65 76 57 3 -7 18 -37 34 -67 16 -30 29
-59 29 -65 0 -6 -21 -36 -47 -68 -66 -81 -123 -173 -123 -200 0 -38 16 -57 90
-108 42 -28 69 -53 66 -61 -14 -36 -18 -200 -6 -285 12 -88 11 -96 -9 -149
-24 -63 -117 -202 -130 -194 -16 9 -31 94 -31 172 0 87 13 141 59 261 17 45
31 86 31 92 0 24 -31 7 -69 -39 l-41 -49 0 -271 0 -271 55 0 55 0 -16 25 c-21
32 -4 32 26 0 l23 -25 246 0 245 0 -42 31 c-45 33 -123 134 -146 191 -19 44
-45 157 -43 183 3 28 -29 31 -44 3 -7 -13 -20 -50 -29 -83 l-17 -60 -22 42
c-91 179 -57 500 84 788 49 100 187 312 268 414 29 36 84 105 122 153 39 49
74 88 78 88 4 0 29 19 55 43 159 146 359 276 482 314 218 67 461 96 621 74
129 -17 194 -36 294 -86 50 -24 140 -63 200 -85 94 -35 117 -48 160 -91 l50
-50 -45 20 c-65 28 -130 38 -130 19 0 -8 17 -22 38 -32 72 -34 177 -105 219
-148 91 -93 186 -297 222 -476 17 -83 18 -82 -41 -82 -35 0 -64 -7 -86 -20
-31 -19 -35 -19 -82 -4 -39 13 -59 14 -89 6 -44 -11 -43 -13 -56 81 -11 75
-23 55 -28 -45 -2 -51 -10 -115 -18 -141 l-14 -49 -23 77 c-12 42 -25 97 -29
121 -4 29 -9 42 -16 35 -11 -11 8 -164 30 -233 8 -27 24 -55 36 -63 30 -21 8
-19 -77 6 -64 19 -78 29 -141 93 -48 48 -84 97 -113 153 -23 44 -42 84 -42 87
0 3 15 6 34 6 36 0 96 18 96 29 0 4 -32 12 -72 18 -43 7 -77 18 -83 27 -22 30
-48 212 -40 283 4 37 9 74 11 82 3 9 -5 -4 -17 -29 -12 -25 -30 -92 -41 -150
-28 -145 -24 -138 -56 -107 -19 19 -34 25 -50 20 -12 -3 -22 -10 -22 -15 0
-20 34 -75 61 -98 24 -20 31 -38 40 -90 11 -73 53 -203 75 -237 25 -40 -3 -25
-46 24 -23 26 -57 80 -76 120 -19 40 -39 75 -45 78 -5 4 -9 18 -9 33 0 15 -7
35 -14 45 -13 17 -15 15 -26 -18 -43 -131 -18 -412 50 -544 32 -63 39 -48 14
29 -34 102 -55 212 -61 316 -5 84 3 211 13 201 2 -2 11 -30 19 -62 23 -88 81
-190 136 -239 50 -45 104 -72 114 -56 3 4 -11 34 -30 66 -41 67 -72 161 -82
242 -6 50 -4 55 11 49 10 -4 23 -7 31 -7 7 0 30 -37 52 -82 22 -46 61 -111 87
-145 78 -103 200 -179 277 -171 34 3 39 1 39 -18 0 -32 -38 -151 -67 -209 -77
-154 -232 -307 -370 -366 -64 -27 -133 -40 -155 -28 -10 6 -23 7 -29 3 -17
-10 61 -84 91 -85 22 0 23 -1 5 -8 -17 -7 -12 -12 35 -39 63 -36 119 -47 188
-37 61 9 50 -3 -59 -60 l-84 -44 56 -1 c50 0 64 5 115 39 54 36 124 121 124
150 0 6 -21 -1 -46 -14 -38 -20 -61 -25 -124 -25 -66 0 -86 4 -137 30 -34 17
-67 37 -73 45 -11 13 -8 15 17 15 116 0 300 124 408 275 58 80 122 216 137
286 l12 57 45 -34 c45 -35 87 -52 98 -40 4 3 -2 6 -12 6 -24 0 -112 68 -135
105 -10 17 -24 51 -30 76 -10 41 -9 53 8 92 24 54 62 77 126 79 30 0 54 -6 74
-21 23 -16 31 -18 35 -8 7 20 70 47 106 47 45 0 108 -35 131 -73 41 -67 20
-146 -59 -221 -67 -61 -125 -89 -173 -83 -21 3 -38 1 -38 -4 0 -14 87 -10 125
5 19 8 51 27 70 42 l35 26 0 -193 c0 -324 -38 -487 -142 -611 l-39 -48 160 0
161 0 0 824 0 823 -84 81 c-177 170 -358 277 -596 353 -116 37 -130 44 -138
68 -11 32 -52 50 -52 23 0 -10 -27 10 -71 53 -55 54 -69 64 -64 45z m-56 -878
c1 -13 -3 -20 -9 -17 -5 3 -10 25 -9 48 1 36 2 38 9 17 4 -14 8 -35 9 -48z
m-1899 -16 c0 -2 -7 -7 -16 -10 -8 -3 -12 -2 -9 4 6 10 25 14 25 6z m2887
-548 c-2 -24 -4 -7 -4 37 0 44 2 63 4 43 2 -21 2 -57 0 -80z"/>
<path d="M1418 1913 c-43 -57 -79 -128 -103 -203 -19 -58 -87 -150 -111 -150
-8 0 -28 7 -44 15 -38 20 -40 2 -4 -36 l26 -27 -45 -78 c-47 -84 -80 -162 -97
-233 -11 -40 -12 -42 -26 -25 -28 38 -58 157 -58 234 0 107 49 245 126 358 41
59 29 63 -20 7 -55 -62 -131 -217 -139 -282 -4 -37 -10 -53 -23 -56 -22 -6
-110 -179 -143 -282 -28 -86 -57 -219 -57 -259 0 -14 -5 -28 -10 -31 -18 -11
-58 -99 -75 -166 -53 -199 58 -493 245 -648 59 -49 63 -51 122 -51 l61 0 -59
38 c-119 77 -223 203 -273 330 -32 79 -42 137 -42 229 0 75 4 95 45 196 24 62
47 135 51 164 15 113 41 190 83 240 22 26 48 64 57 82 l18 35 17 -55 c20 -65
36 -96 63 -126 33 -36 52 -30 53 17 0 30 20 80 73 186 41 80 79 148 86 151 8
2 22 0 33 -6 16 -8 20 -26 26 -97 23 -275 157 -524 284 -524 17 0 32 2 32 4 0
2 -7 23 -15 46 -8 23 -15 45 -15 47 0 3 18 -22 41 -56 81 -122 231 -221 335
-221 29 0 56 4 59 10 4 6 -12 10 -42 10 -67 0 -173 52 -248 122 -63 59 -129
158 -146 221 -5 21 -14 35 -19 32 -15 -9 -12 -117 5 -164 l14 -41 -28 15
c-108 55 -209 275 -227 490 l-7 85 42 0 c52 0 89 19 119 60 20 26 21 34 11 48
-8 9 -14 18 -15 20 0 1 -15 -5 -33 -14 -47 -23 -111 -31 -111 -12 0 65 69 243
133 345 15 24 27 45 27 48 0 16 -20 -1 -52 -42z m-142 -360 c-10 -10 -19 5
-10 18 6 11 8 11 12 0 2 -7 1 -15 -2 -18z m-397 -243 c-18 -33 -34 -59 -36
-56 -2 2 11 41 29 87 26 68 33 79 36 57 2 -17 -9 -51 -29 -88z"/>
<path d="M2920 1079 c-19 -12 -36 -25 -38 -30 -6 -14 -30 -10 -72 11 -151 77
-180 -101 -33 -200 61 -40 104 -37 178 15 116 80 138 174 50 211 -44 18 -43
18 -85 -7z m103 -29 c16 -19 23 -37 20 -50 -10 -36 -89 -115 -141 -139 -45
-21 -54 -22 -82 -11 -48 20 -118 95 -126 134 -13 71 35 102 104 67 54 -27 75
-26 108 4 38 36 85 34 117 -5z"/>
<path d="M1065 979 c-95 -36 -146 -164 -96 -245 77 -126 253 -120 312 10 38
83 18 167 -52 218 -31 23 -122 32 -164 17z"/>
<path d="M2076 727 c-47 -27 -86 -94 -86 -149 0 -156 194 -254 307 -155 41 36
73 98 73 142 0 65 -61 151 -123 174 -48 19 -128 13 -171 -12z"/>
<path d="M1290 629 c0 -6 6 -23 14 -37 8 -15 19 -56 26 -92 16 -86 52 -171
106 -247 81 -114 197 -144 280 -71 60 53 78 100 78 203 1 68 4 93 16 102 13
11 11 13 -10 14 -14 1 -47 1 -75 0 -61 -3 -106 15 -170 68 -49 41 -105 55
-120 31 -15 -24 -125 5 -125 32 0 4 -4 8 -10 8 -5 0 -10 -5 -10 -11z m243 -90
c37 -52 98 -79 176 -79 l64 0 -5 -73 c-8 -126 -66 -197 -160 -197 -59 0 -116
41 -168 121 -36 57 -81 159 -96 223 -7 29 -4 30 51 9 6 -2 30 7 55 20 25 13
47 20 51 17 3 -3 17 -21 32 -41z"/>
<path d="M2644 59 c-10 -12 -35 -29 -54 -40 l-35 -18 52 -1 c56 0 73 14 73 59
0 27 -12 27 -36 0z"/>
</g>
</svg>
